<mxfile host="Electron" modified="2024-04-20T19:42:58.644Z" agent="Mozilla/5.0 (Windows NT 10.0; Win64; x64) AppleWebKit/537.36 (KHTML, like Gecko) draw.io/24.2.5 Chrome/120.0.6099.109 Electron/28.1.0 Safari/537.36" etag="iEO8Ew4XoXZFTVqGJRKr" version="24.2.5" type="device">
  <diagram name="Página-1" id="7qytRSgaNn3x6toJL_jJ">
    <mxGraphModel dx="1404" dy="814" grid="1" gridSize="10" guides="1" tooltips="1" connect="1" arrows="1" fold="1" page="1" pageScale="1" pageWidth="827" pageHeight="1169" background="#CCE5FF" math="0" shadow="0">
      <root>
        <mxCell id="0" />
        <mxCell id="1" parent="0" />
        <mxCell id="DLLaARMDT2hmHiP_PxHQ-1" value="&lt;font style=&quot;font-size: 17px;&quot; color=&quot;#000000&quot; face=&quot;Comic Sans MS&quot;&gt;&lt;b&gt;1 Hacer un programa para mostrar por pantalla los números del 1 al 10.&lt;br&gt;Importante: El programa no tiene ningún ingreso de datos.&lt;/b&gt;&lt;/font&gt;" style="text;whiteSpace=wrap;html=1;fontFamily=Architects Daughter;fontSource=https%3A%2F%2Ffonts.googleapis.com%2Fcss%3Ffamily%3DArchitects%2BDaughter;" parent="1" vertex="1">
          <mxGeometry x="90" y="10" width="621" height="60" as="geometry" />
        </mxCell>
        <mxCell id="DLLaARMDT2hmHiP_PxHQ-11" value="" style="group;aspect=fixed;strokeWidth=2;strokeColor=#080808;fillColor=none;container=0;" parent="1" vertex="1" connectable="0">
          <mxGeometry x="250" y="270" width="220" height="220" as="geometry" />
        </mxCell>
        <mxCell id="DLLaARMDT2hmHiP_PxHQ-22" value="" style="line;strokeWidth=2;direction=south;html=1;hachureGap=4;fontFamily=Architects Daughter;fontSource=https://fonts.googleapis.com/css?family=Architects+Daughter;strokeColor=#000000;container=0;" parent="1" vertex="1">
          <mxGeometry x="355" y="170" width="10" height="30" as="geometry" />
        </mxCell>
        <mxCell id="DLLaARMDT2hmHiP_PxHQ-23" value="" style="line;strokeWidth=2;direction=south;html=1;hachureGap=4;fontFamily=Architects Daughter;fontSource=https://fonts.googleapis.com/css?family=Architects+Daughter;strokeColor=#000000;container=0;" parent="1" vertex="1">
          <mxGeometry x="355" y="490" width="10" height="40" as="geometry" />
        </mxCell>
        <mxCell id="DLLaARMDT2hmHiP_PxHQ-24" value="" style="line;strokeWidth=2;direction=south;html=1;hachureGap=4;fontFamily=Architects Daughter;fontSource=https://fonts.googleapis.com/css?family=Architects+Daughter;strokeColor=#000000;container=0;" parent="1" vertex="1">
          <mxGeometry x="355" y="230" width="10" height="40" as="geometry" />
        </mxCell>
        <mxCell id="DLLaARMDT2hmHiP_PxHQ-3" value="" style="strokeWidth=2;html=1;shape=mxgraph.flowchart.start_2;whiteSpace=wrap;rounded=0;labelBackgroundColor=none;strokeColor=#000000;align=center;verticalAlign=middle;fontFamily=Helvetica;fontSize=12;fontColor=default;fillColor=#d5e8d4;container=0;" parent="1" vertex="1">
          <mxGeometry x="340" y="120" width="40" height="50" as="geometry" />
        </mxCell>
        <mxCell id="DLLaARMDT2hmHiP_PxHQ-5" value="&lt;b&gt;&lt;font color=&quot;#000000&quot; style=&quot;font-size: 21px;&quot; face=&quot;Comic Sans MS&quot;&gt;I&lt;/font&gt;&lt;/b&gt;" style="text;strokeColor=none;align=center;fillColor=none;html=1;verticalAlign=middle;whiteSpace=wrap;rounded=0;fontFamily=Architects Daughter;fontSource=https%3A%2F%2Ffonts.googleapis.com%2Fcss%3Ffamily%3DArchitects%2BDaughter;container=0;" parent="1" vertex="1">
          <mxGeometry x="340" y="130" width="40" height="30" as="geometry" />
        </mxCell>
        <mxCell id="DLLaARMDT2hmHiP_PxHQ-4" value="" style="strokeWidth=2;html=1;shape=mxgraph.flowchart.start_2;whiteSpace=wrap;rounded=0;labelBackgroundColor=none;strokeColor=#000000;align=center;verticalAlign=middle;fontFamily=Helvetica;fontSize=12;fontColor=default;fillColor=#d5e8d4;container=0;" parent="1" vertex="1">
          <mxGeometry x="340" y="530" width="40" height="50" as="geometry" />
        </mxCell>
        <mxCell id="DLLaARMDT2hmHiP_PxHQ-6" value="&lt;b&gt;&lt;font color=&quot;#000000&quot; style=&quot;font-size: 21px;&quot; face=&quot;Comic Sans MS&quot;&gt;F&lt;/font&gt;&lt;/b&gt;" style="text;strokeColor=none;align=center;fillColor=none;html=1;verticalAlign=middle;whiteSpace=wrap;rounded=0;fontFamily=Architects Daughter;fontSource=https://fonts.googleapis.com/css?family=Architects+Daughter;container=0;" parent="1" vertex="1">
          <mxGeometry x="345" y="540" width="30" height="30" as="geometry" />
        </mxCell>
        <mxCell id="DLLaARMDT2hmHiP_PxHQ-2" value="" style="rounded=0;whiteSpace=wrap;html=1;labelBackgroundColor=none;strokeColor=#0f100e;strokeWidth=2;align=center;verticalAlign=middle;fontFamily=Helvetica;fontSize=12;fontColor=default;fillColor=#d5e8d4;container=0;" parent="1" vertex="1">
          <mxGeometry x="310" y="200" width="100" height="30" as="geometry" />
        </mxCell>
        <mxCell id="DLLaARMDT2hmHiP_PxHQ-9" value="&lt;font face=&quot;Comic Sans MS&quot; color=&quot;#000000&quot;&gt;&lt;span style=&quot;font-size: 15px;&quot;&gt;&lt;b&gt;int num = 1&lt;/b&gt;&lt;/span&gt;&lt;/font&gt;" style="text;strokeColor=none;align=center;fillColor=none;html=1;verticalAlign=middle;whiteSpace=wrap;rounded=0;fontFamily=Architects Daughter;fontSource=https%3A%2F%2Ffonts.googleapis.com%2Fcss%3Ffamily%3DArchitects%2BDaughter;container=0;" parent="1" vertex="1">
          <mxGeometry x="310" y="200" width="100" height="30" as="geometry" />
        </mxCell>
        <mxCell id="DLLaARMDT2hmHiP_PxHQ-12" value="" style="whiteSpace=wrap;html=1;aspect=fixed;rounded=0;labelBackgroundColor=none;strokeColor=#1A1A1A;strokeWidth=3;align=center;verticalAlign=middle;fontFamily=Helvetica;fontSize=12;fontColor=default;fillColor=#d5e8d4;container=0;" parent="1" vertex="1">
          <mxGeometry x="250" y="270" width="220.00000000000003" height="220.00000000000003" as="geometry" />
        </mxCell>
        <mxCell id="DLLaARMDT2hmHiP_PxHQ-13" value="" style="edgeStyle=none;orthogonalLoop=1;jettySize=auto;html=1;rounded=0;strokeColor=#000000;fontFamily=Helvetica;fontSize=12;fontColor=default;fillColor=#B2C9AB;startArrow=none;startFill=0;endArrow=none;endFill=0;endSize=7;strokeWidth=2;" parent="1" edge="1">
          <mxGeometry width="80" relative="1" as="geometry">
            <mxPoint x="470" y="305.48387096774195" as="sourcePoint" />
            <mxPoint x="250" y="305.48387096774195" as="targetPoint" />
            <Array as="points" />
          </mxGeometry>
        </mxCell>
        <mxCell id="DLLaARMDT2hmHiP_PxHQ-14" value="&lt;b&gt;&lt;font color=&quot;#000000&quot; style=&quot;font-size: 16px;&quot; face=&quot;Comic Sans MS&quot;&gt;num &amp;lt;= 10&lt;/font&gt;&lt;/b&gt;" style="text;strokeColor=none;align=center;fillColor=none;html=1;verticalAlign=middle;whiteSpace=wrap;rounded=0;fontFamily=Architects Daughter;fontSource=https%3A%2F%2Ffonts.googleapis.com%2Fcss%3Ffamily%3DArchitects%2BDaughter;container=0;" parent="1" vertex="1">
          <mxGeometry x="304" y="278" width="110" height="20" as="geometry" />
        </mxCell>
        <mxCell id="x0ExJh0P0DGlmk_7QsZM-1" value="" style="line;strokeWidth=2;direction=south;html=1;hachureGap=4;fontFamily=Architects Daughter;fontSource=https://fonts.googleapis.com/css?family=Architects+Daughter;strokeColor=#000000;container=0;" vertex="1" parent="1">
          <mxGeometry x="329" y="370" width="60" height="40" as="geometry" />
        </mxCell>
        <mxCell id="DLLaARMDT2hmHiP_PxHQ-15" value="" style="shape=trapezoid;perimeter=trapezoidPerimeter;whiteSpace=wrap;html=1;fixedSize=1;rounded=0;labelBackgroundColor=none;strokeColor=#0F140C;strokeWidth=2;align=center;verticalAlign=middle;fontFamily=Helvetica;fontSize=12;fontColor=default;fillColor=#d5e8d4;container=0;" parent="1" vertex="1">
          <mxGeometry x="300" y="330" width="120" height="40" as="geometry" />
        </mxCell>
        <mxCell id="DLLaARMDT2hmHiP_PxHQ-17" value="&lt;b&gt;&lt;font color=&quot;#000000&quot; style=&quot;font-size: 17px;&quot; face=&quot;Comic Sans MS&quot;&gt;num&lt;/font&gt;&lt;/b&gt;" style="text;strokeColor=none;align=center;fillColor=none;html=1;verticalAlign=middle;whiteSpace=wrap;rounded=0;fontFamily=Architects Daughter;fontSource=https%3A%2F%2Ffonts.googleapis.com%2Fcss%3Ffamily%3DArchitects%2BDaughter;container=0;" parent="1" vertex="1">
          <mxGeometry x="330" y="335" width="60" height="30" as="geometry" />
        </mxCell>
        <mxCell id="DLLaARMDT2hmHiP_PxHQ-16" value="" style="rounded=0;whiteSpace=wrap;html=1;labelBackgroundColor=none;strokeColor=#0f100e;strokeWidth=2;align=center;verticalAlign=middle;fontFamily=Helvetica;fontSize=12;fontColor=default;fillColor=#d5e8d4;container=0;" parent="1" vertex="1">
          <mxGeometry x="309" y="410" width="100" height="40" as="geometry" />
        </mxCell>
        <mxCell id="DLLaARMDT2hmHiP_PxHQ-20" value="&lt;b&gt;&lt;font color=&quot;#000000&quot; style=&quot;font-size: 17px;&quot; face=&quot;Comic Sans MS&quot;&gt;num++&lt;/font&gt;&lt;/b&gt;" style="text;strokeColor=none;align=center;fillColor=none;html=1;verticalAlign=middle;whiteSpace=wrap;rounded=0;fontFamily=Architects Daughter;fontSource=https://fonts.googleapis.com/css?family=Architects+Daughter;container=0;" parent="1" vertex="1">
          <mxGeometry x="331" y="414" width="60" height="30" as="geometry" />
        </mxCell>
      </root>
    </mxGraphModel>
  </diagram>
</mxfile>
